<!-- Generated by IcoMoon.io -->
<svg version="1.1" xmlns="http://www.w3.org/2000/svg" width="42" height="60" viewBox="0 0 42 60">
<title>menu</title>
<path d="M39 27c0.88 0 1.6 0.3 2.16 0.9s0.84 1.3 0.84 2.1c0 0.8-0.3 1.5-0.9 2.1s-1.3 0.9-2.1 0.9c0 0-36 0-36 0-0.8 0-1.5-0.3-2.1-0.9s-0.9-1.3-0.9-2.1c0-0.8 0.28-1.5 0.84-2.1s1.28-0.9 2.16-0.9c0 0 36 0 36 0s0 0 0 0zM3 21c-0.8 0-1.5-0.3-2.1-0.9s-0.9-1.3-0.9-2.1c0-0.8 0.28-1.5 0.84-2.1s1.28-0.9 2.16-0.9c0 0 36 0 36 0 0.88 0 1.6 0.3 2.16 0.9s0.84 1.3 0.84 2.1c0 0.8-0.3 1.5-0.9 2.1s-1.3 0.9-2.1 0.9c0 0-36 0-36 0s0 0 0 0zM39 39c0.88 0 1.6 0.3 2.16 0.9s0.84 1.3 0.84 2.1c0 0.8-0.3 1.5-0.9 2.1s-1.3 0.9-2.1 0.9c0 0-36 0-36 0-0.8 0-1.5-0.3-2.1-0.9s-0.9-1.3-0.9-2.1c0-0.8 0.28-1.5 0.84-2.1s1.28-0.9 2.16-0.9c0 0 36 0 36 0s0 0 0 0z"></path>
</svg>
